<svg xmlns="http://www.w3.org/2000/svg" width="1400" height="540" viewBox="0 0 1400 540" role="img" aria-labelledby="title desc">
  <title id="title">Sammy Hawari</title>
  <desc id="desc">Light mode portfolio hero for a game designer, Roblox gamedev, and AI programmer.</desc>
  <defs>
    <linearGradient id="bg" x1="0" y1="0" x2="1" y2="1">
      <stop offset="0" stop-color="#f8f7f2"/>
      <stop offset="1" stop-color="#efede4"/>
    </linearGradient>
    <linearGradient id="panel" x1="0" y1="0" x2="0" y2="1">
      <stop offset="0" stop-color="#ffffff"/>
      <stop offset="1" stop-color="#f5f3eb"/>
    </linearGradient>
    <linearGradient id="lime" x1="0" y1="0" x2="1" y2="1">
      <stop offset="0" stop-color="#dbff72"/>
      <stop offset="1" stop-color="#b9ec49"/>
    </linearGradient>
    <linearGradient id="blue" x1="0" y1="0" x2="1" y2="1">
      <stop offset="0" stop-color="#95a5ff"/>
      <stop offset="1" stop-color="#7688ff"/>
    </linearGradient>
    <filter id="shadow" x="-20%" y="-20%" width="160%" height="160%">
      <feDropShadow dx="0" dy="14" stdDeviation="18" flood-color="#18191b" flood-opacity="0.08"/>
    </filter>
    <pattern id="microGrid" width="24" height="24" patternUnits="userSpaceOnUse">
      <path d="M24 0H0V24" fill="none" stroke="#e2dfd4" stroke-width="1"/>
    </pattern>
  </defs>

  <rect width="1400" height="540" rx="34" fill="url(#bg)"/>
  <rect x="24" y="24" width="1352" height="492" rx="28" fill="none" stroke="#1b1c1d" stroke-width="1.5"/>

  <g transform="translate(66 68)">
    <circle cx="10" cy="10" r="6" fill="#1b1c1d"/>
    <text x="0" y="46" fill="#151617" font-family="Inter, Arial, sans-serif" font-size="82" font-weight="760" letter-spacing="-3">SAMMY</text>
    <text x="0" y="120" fill="#151617" font-family="Inter, Arial, sans-serif" font-size="82" font-weight="760" letter-spacing="-3">HAWARI</text>
    <text x="2" y="162" fill="#676a6c" font-family="Inter, Arial, sans-serif" font-size="14" font-weight="700" letter-spacing="3.1">GAME DESIGNER / ROBLOX GAMEDEV / AI PROGRAMMER</text>

    <g transform="translate(0 214)" font-family="Inter, Arial, sans-serif" font-weight="760" font-size="44" letter-spacing="-1.5">
      <text x="0" y="0" fill="#1b1c1d">PLAY</text>
      <text x="162" y="0" fill="#1b1c1d">×</text>
      <text x="222" y="0" fill="#1b1c1d">SYSTEMS</text>
      <text x="506" y="0" fill="#1b1c1d">×</text>
      <text x="566" y="0" fill="#1b1c1d">INTELLIGENCE</text>
    </g>

    <g transform="translate(0 274)" fill="#5c6063" font-family="Inter, Arial, sans-serif" font-size="20" font-weight="540">
      <text x="0" y="0">minimal worlds. game feel. live systems. curious machines.</text>
    </g>
  </g>

  <g transform="translate(785 62)" filter="url(#shadow)">
    <rect x="0" y="0" width="555" height="410" rx="28" fill="url(#panel)" stroke="#1b1c1d" stroke-width="1.5"/>
    <rect x="20" y="20" width="515" height="370" rx="22" fill="url(#microGrid)"/>

    <text x="38" y="54" fill="#1b1c1d" font-family="ui-monospace, SFMono-Regular, Menlo, monospace" font-size="13" font-weight="700" letter-spacing="2.4">VISUAL SYSTEM</text>

    <g transform="translate(42 88)">
      <rect x="0" y="0" width="138" height="250" rx="22" fill="#fff" stroke="#1b1c1d" stroke-width="1.5"/>
      <text x="20" y="34" fill="#1b1c1d" font-family="Inter, Arial, sans-serif" font-size="26" font-weight="760">GAME</text>
      <text x="20" y="62" fill="#6a6e70" font-family="Inter, Arial, sans-serif" font-size="15" font-weight="700">PLAY SPACE</text>
      <g transform="translate(20 92)" stroke="#1b1c1d" stroke-width="2" stroke-linejoin="round">
        <path d="M10 76 49 54l39 22-39 22z" fill="#f3f0e7"/>
        <path d="M10 76v23l39 23V98z" fill="#e6e0d2"/>
        <path d="M88 76v23l-39 23V98z" fill="#d8d0bf"/>
        <path d="M31 64 49 54l18 10-18 11z" fill="url(#lime)"/>
        <circle cx="92" cy="40" r="13" fill="#ff8c69"/>
        <path d="M92 27V7" fill="none"/>
        <path d="m92 7-8 12h16z" fill="#1b1c1d"/>
        <rect x="26" y="83" width="12" height="22" rx="3" fill="#1b1c1d"/>
        <rect x="40" y="79" width="18" height="26" rx="4" fill="#1b1c1d"/>
      </g>
    </g>

    <g transform="translate(208 88)">
      <rect x="0" y="0" width="138" height="250" rx="22" fill="#fff" stroke="#1b1c1d" stroke-width="1.5"/>
      <text x="20" y="34" fill="#1b1c1d" font-family="Inter, Arial, sans-serif" font-size="26" font-weight="760">ROBLOX</text>
      <text x="20" y="62" fill="#6a6e70" font-family="Inter, Arial, sans-serif" font-size="15" font-weight="700">GAME SYSTEMS</text>
      <g transform="translate(18 95)" stroke="#1b1c1d" stroke-width="2" fill="#fff">
        <rect x="0" y="0" width="42" height="28" rx="8" fill="#f3f0e7"/>
        <rect x="60" y="50" width="42" height="28" rx="8" fill="url(#lime)"/>
        <rect x="0" y="102" width="42" height="28" rx="8" fill="#f3f0e7"/>
        <path d="M42 14H60V64M60 64H42M42 116H60" fill="none"/>
        <circle cx="60" cy="14" r="7" fill="url(#blue)"/>
        <circle cx="60" cy="116" r="7" fill="#ff8c69"/>
        <path d="M10 10h22M10 18h12M70 60h22M70 68h12M10 112h22M10 120h15" fill="none"/>
      </g>
    </g>

    <g transform="translate(374 88)">
      <rect x="0" y="0" width="138" height="250" rx="22" fill="#fff" stroke="#1b1c1d" stroke-width="1.5"/>
      <text x="20" y="34" fill="#1b1c1d" font-family="Inter, Arial, sans-serif" font-size="26" font-weight="760">AI</text>
      <text x="20" y="62" fill="#6a6e70" font-family="Inter, Arial, sans-serif" font-size="15" font-weight="700">AGENT LOGIC</text>
      <g transform="translate(14 82)" stroke="#1b1c1d" stroke-width="1.8" fill="none">
        <path d="M55 10 96 34 96 82 55 106 14 82 14 34z"/>
        <path d="M55 10V106M14 34 96 82M96 34 14 82"/>
      </g>
      <g transform="translate(14 82)" stroke="#1b1c1d" stroke-width="1.5">
        <circle cx="55" cy="10" r="8" fill="url(#blue)"/>
        <circle cx="96" cy="34" r="8" fill="#fff"/>
        <circle cx="96" cy="82" r="8" fill="#ff8c69"/>
        <circle cx="55" cy="106" r="8" fill="#fff"/>
        <circle cx="14" cy="82" r="8" fill="url(#lime)"/>
        <circle cx="14" cy="34" r="8" fill="#fff"/>
        <circle cx="55" cy="58" r="13" fill="#1b1c1d"/>
      </g>
    </g>
  </g>
</svg>
